solid OpenSCAD_Model
  facet normal -1 0 0
    outer loop
      vertex 0 120 0
      vertex 0 117 7
      vertex 0 120 11
    endloop
  endfacet
  facet normal -1 0 0
    outer loop
      vertex 0 0 0
      vertex 0 117 7
      vertex 0 120 0
    endloop
  endfacet
  facet normal -1 -0 0
    outer loop
      vertex 0 117 7
      vertex 0 0 0
      vertex 0 0 7
    endloop
  endfacet
  facet normal -1 -0 0
    outer loop
      vertex 0 120 11
      vertex 0 117 7
      vertex 0 117 11
    endloop
  endfacet
  facet normal 0 0 1
    outer loop
      vertex 153.5 6 7
      vertex 160 117 7
      vertex 153.5 117 7
    endloop
  endfacet
  facet normal 0 0 1
    outer loop
      vertex 160 117 7
      vertex 153.5 6 7
      vertex 160 0 7
    endloop
  endfacet
  facet normal 0 0 1
    outer loop
      vertex 82 0 7
      vertex 153.5 6 7
      vertex 82 6 7
    endloop
  endfacet
  facet normal 0 0 1
    outer loop
      vertex 153.5 6 7
      vertex 82 0 7
      vertex 160 0 7
    endloop
  endfacet
  facet normal 0 0 1
    outer loop
      vertex 2.5 117 7
      vertex 0 117 7
      vertex 2.5 6 7
    endloop
  endfacet
  facet normal -0 0 1
    outer loop
      vertex 2.5 6 7
      vertex 78 0 7
      vertex 78 6 7
    endloop
  endfacet
  facet normal 0 0 1
    outer loop
      vertex 2.5 6 7
      vertex 0 0 7
      vertex 78 0 7
    endloop
  endfacet
  facet normal 0 0 1
    outer loop
      vertex 0 0 7
      vertex 2.5 6 7
      vertex 0 117 7
    endloop
  endfacet
  facet normal 0 0 -1
    outer loop
      vertex 2.5 117 7
      vertex 3 120 7
      vertex 3 117 7
    endloop
  endfacet
  facet normal -0 0 -1
    outer loop
      vertex 3 120 7
      vertex 2.5 117 7
      vertex 2.5 120 7
    endloop
  endfacet
  facet normal 1 0 0
    outer loop
      vertex 160 117 7
      vertex 160 120 11
      vertex 160 117 11
    endloop
  endfacet
  facet normal 1 0 0
    outer loop
      vertex 160 120 11
      vertex 160 117 7
      vertex 160 120 0
    endloop
  endfacet
  facet normal 1 0 0
    outer loop
      vertex 160 0 0
      vertex 160 117 7
      vertex 160 0 7
    endloop
  endfacet
  facet normal 1 0 0
    outer loop
      vertex 160 117 7
      vertex 160 0 0
      vertex 160 120 0
    endloop
  endfacet
  facet normal 0 0 -1
    outer loop
      vertex 160 0 0
      vertex 149 10.5 0
      vertex 160 120 0
    endloop
  endfacet
  facet normal 0 0 -1
    outer loop
      vertex 160 0 0
      vertex 11 10.5 0
      vertex 149 10.5 0
    endloop
  endfacet
  facet normal 0 0 -1
    outer loop
      vertex 0 0 0
      vertex 11 10.5 0
      vertex 160 0 0
    endloop
  endfacet
  facet normal 0 0 -1
    outer loop
      vertex 0 120 0
      vertex 11 10.5 0
      vertex 0 0 0
    endloop
  endfacet
  facet normal 0 0 -1
    outer loop
      vertex 11 10.5 0
      vertex 0 120 0
      vertex 11 120 0
    endloop
  endfacet
  facet normal -0 0 -1
    outer loop
      vertex 160 120 0
      vertex 149 10.5 0
      vertex 149 120 0
    endloop
  endfacet
  facet normal 0 -1 0
    outer loop
      vertex 0 0 0
      vertex 78 0 7
      vertex 0 0 7
    endloop
  endfacet
  facet normal 0 -1 -0
    outer loop
      vertex 78 0 7
      vertex 0 0 0
      vertex 82 0 7
    endloop
  endfacet
  facet normal 0 -1 0
    outer loop
      vertex 160 0 0
      vertex 82 0 7
      vertex 0 0 0
    endloop
  endfacet
  facet normal 0 -1 0
    outer loop
      vertex 82 0 7
      vertex 160 0 0
      vertex 160 0 7
    endloop
  endfacet
  facet normal 0 -1 0
    outer loop
      vertex 78 0 7
      vertex 82 0 11
      vertex 78 0 11
    endloop
  endfacet
  facet normal 0 -1 -0
    outer loop
      vertex 82 0 11
      vertex 78 0 7
      vertex 82 0 7
    endloop
  endfacet
  facet normal 1 -0 0
    outer loop
      vertex 2.5 117 7
      vertex 2.5 120 2
      vertex 2.5 120 7
    endloop
  endfacet
  facet normal 1 0 0
    outer loop
      vertex 2.5 6 2
      vertex 2.5 117 7
      vertex 2.5 6 7
    endloop
  endfacet
  facet normal 1 0 0
    outer loop
      vertex 2.5 117 7
      vertex 2.5 6 2
      vertex 2.5 120 2
    endloop
  endfacet
  facet normal -1 0 0
    outer loop
      vertex 153.5 120 2
      vertex 153.5 117 7
      vertex 153.5 120 7
    endloop
  endfacet
  facet normal -1 0 0
    outer loop
      vertex 153.5 6 2
      vertex 153.5 117 7
      vertex 153.5 120 2
    endloop
  endfacet
  facet normal -1 -0 0
    outer loop
      vertex 153.5 117 7
      vertex 153.5 6 2
      vertex 153.5 6 7
    endloop
  endfacet
  facet normal 0 0 1
    outer loop
      vertex 11 120 2
      vertex 2.5 120 2
      vertex 11 10.5 2
    endloop
  endfacet
  facet normal 0 0 1
    outer loop
      vertex 149 10.5 2
      vertex 153.5 120 2
      vertex 149 120 2
    endloop
  endfacet
  facet normal 0 0 1
    outer loop
      vertex 153.5 120 2
      vertex 149 10.5 2
      vertex 153.5 6 2
    endloop
  endfacet
  facet normal -0 0 1
    outer loop
      vertex 11 10.5 2
      vertex 153.5 6 2
      vertex 149 10.5 2
    endloop
  endfacet
  facet normal 0 0 1
    outer loop
      vertex 11 10.5 2
      vertex 2.5 6 2
      vertex 153.5 6 2
    endloop
  endfacet
  facet normal 0 0 1
    outer loop
      vertex 2.5 6 2
      vertex 11 10.5 2
      vertex 2.5 120 2
    endloop
  endfacet
  facet normal 0 1 -0
    outer loop
      vertex 153.5 6 2
      vertex 82 6 7
      vertex 153.5 6 7
    endloop
  endfacet
  facet normal 0 1 0
    outer loop
      vertex 82 6 7
      vertex 153.5 6 2
      vertex 78 6 7
    endloop
  endfacet
  facet normal 0 1 0
    outer loop
      vertex 2.5 6 2
      vertex 78 6 7
      vertex 153.5 6 2
    endloop
  endfacet
  facet normal 0 1 0
    outer loop
      vertex 78 6 7
      vertex 2.5 6 2
      vertex 2.5 6 7
    endloop
  endfacet
  facet normal 1 -0 0
    outer loop
      vertex 11 10.5 2
      vertex 11 120 0
      vertex 11 120 2
    endloop
  endfacet
  facet normal 1 0 0
    outer loop
      vertex 11 120 0
      vertex 11 10.5 2
      vertex 11 10.5 0
    endloop
  endfacet
  facet normal -1 0 0
    outer loop
      vertex 149 10.5 0
      vertex 149 120 2
      vertex 149 120 0
    endloop
  endfacet
  facet normal -1 -0 0
    outer loop
      vertex 149 120 2
      vertex 149 10.5 0
      vertex 149 10.5 2
    endloop
  endfacet
  facet normal 0 1 -0
    outer loop
      vertex 149 10.5 0
      vertex 11 10.5 2
      vertex 149 10.5 2
    endloop
  endfacet
  facet normal 0 1 0
    outer loop
      vertex 11 10.5 2
      vertex 149 10.5 0
      vertex 11 10.5 0
    endloop
  endfacet
  facet normal -1 0 0
    outer loop
      vertex 78 0 7
      vertex 78 6 11
      vertex 78 6 7
    endloop
  endfacet
  facet normal -1 -0 0
    outer loop
      vertex 78 6 11
      vertex 78 0 7
      vertex 78 0 11
    endloop
  endfacet
  facet normal -0 0 1
    outer loop
      vertex 78 6 11
      vertex 82 0 11
      vertex 82 6 11
    endloop
  endfacet
  facet normal 0 0 1
    outer loop
      vertex 82 0 11
      vertex 78 6 11
      vertex 78 0 11
    endloop
  endfacet
  facet normal 1 -0 0
    outer loop
      vertex 82 0 11
      vertex 82 6 7
      vertex 82 6 11
    endloop
  endfacet
  facet normal 1 0 0
    outer loop
      vertex 82 6 7
      vertex 82 0 11
      vertex 82 0 7
    endloop
  endfacet
  facet normal 0 1 -0
    outer loop
      vertex 82 6 7
      vertex 78 6 11
      vertex 82 6 11
    endloop
  endfacet
  facet normal 0 1 0
    outer loop
      vertex 78 6 11
      vertex 82 6 7
      vertex 78 6 7
    endloop
  endfacet
  facet normal -0 0 1
    outer loop
      vertex 0 120 11
      vertex 3 117 11
      vertex 3 120 11
    endloop
  endfacet
  facet normal 0 0 1
    outer loop
      vertex 3 117 11
      vertex 0 120 11
      vertex 0 117 11
    endloop
  endfacet
  facet normal 1 -0 0
    outer loop
      vertex 3 117 11
      vertex 3 120 7
      vertex 3 120 11
    endloop
  endfacet
  facet normal 1 0 0
    outer loop
      vertex 3 120 7
      vertex 3 117 11
      vertex 3 117 7
    endloop
  endfacet
  facet normal 0 -1 0
    outer loop
      vertex 2.5 117 7
      vertex 0 117 11
      vertex 0 117 7
    endloop
  endfacet
  facet normal 0 -1 0
    outer loop
      vertex 0 117 11
      vertex 2.5 117 7
      vertex 3 117 11
    endloop
  endfacet
  facet normal 0 -1 -0
    outer loop
      vertex 3 117 11
      vertex 2.5 117 7
      vertex 3 117 7
    endloop
  endfacet
  facet normal -1 0 0
    outer loop
      vertex 153.5 117 7
      vertex 153.5 120 11
      vertex 153.5 120 7
    endloop
  endfacet
  facet normal -1 -0 0
    outer loop
      vertex 153.5 120 11
      vertex 153.5 117 7
      vertex 153.5 117 11
    endloop
  endfacet
  facet normal -0 0 1
    outer loop
      vertex 153.5 120 11
      vertex 160 117 11
      vertex 160 120 11
    endloop
  endfacet
  facet normal 0 0 1
    outer loop
      vertex 160 117 11
      vertex 153.5 120 11
      vertex 153.5 117 11
    endloop
  endfacet
  facet normal 0 -1 0
    outer loop
      vertex 153.5 117 7
      vertex 160 117 11
      vertex 153.5 117 11
    endloop
  endfacet
  facet normal 0 -1 -0
    outer loop
      vertex 160 117 11
      vertex 153.5 117 7
      vertex 160 117 7
    endloop
  endfacet
  facet normal 0 1 0
    outer loop
      vertex 11 120 2
      vertex 11 120 0
      vertex 2.5 120 2
    endloop
  endfacet
  facet normal 0 1 0
    outer loop
      vertex 2.5 120 7
      vertex 3 120 11
      vertex 3 120 7
    endloop
  endfacet
  facet normal 0 1 0
    outer loop
      vertex 3 120 11
      vertex 2.5 120 7
      vertex 0 120 11
    endloop
  endfacet
  facet normal 0 1 0
    outer loop
      vertex 0 120 0
      vertex 2.5 120 7
      vertex 2.5 120 2
    endloop
  endfacet
  facet normal 0 1 0
    outer loop
      vertex 2.5 120 7
      vertex 0 120 0
      vertex 0 120 11
    endloop
  endfacet
  facet normal 0 1 0
    outer loop
      vertex 0 120 0
      vertex 2.5 120 2
      vertex 11 120 0
    endloop
  endfacet
  facet normal 0 1 0
    outer loop
      vertex 160 120 11
      vertex 153.5 120 7
      vertex 153.5 120 11
    endloop
  endfacet
  facet normal 0 1 -0
    outer loop
      vertex 160 120 0
      vertex 153.5 120 7
      vertex 160 120 11
    endloop
  endfacet
  facet normal 0 1 0
    outer loop
      vertex 153.5 120 7
      vertex 160 120 0
      vertex 153.5 120 2
    endloop
  endfacet
  facet normal 0 1 0
    outer loop
      vertex 149 120 0
      vertex 153.5 120 2
      vertex 160 120 0
    endloop
  endfacet
  facet normal 0 1 0
    outer loop
      vertex 153.5 120 2
      vertex 149 120 0
      vertex 149 120 2
    endloop
  endfacet
endsolid OpenSCAD_Model
